<?xml version="1.0" encoding="UTF-8" standalone="no"?>
<!-- Created with Inkscape (http://www.inkscape.org/) -->
<svg xmlns:dc="http://purl.org/dc/elements/1.1/" xmlns:cc="http://creativecommons.org/ns#" xmlns:rdf="http://www.w3.org/1999/02/22-rdf-syntax-ns#" xmlns:svg="http://www.w3.org/2000/svg" xmlns="http://www.w3.org/2000/svg" xmlns:sodipodi="http://sodipodi.sourceforge.net/DTD/sodipodi-0.dtd" xmlns:inkscape="http://www.inkscape.org/namespaces/inkscape" width="361" height="510" preserveAspectRatio="xMinYMin meet" viewBox="0 0 361 510.00001" id="svg2" version="1.1" inkscape:version="0.47 r22583" sodipodi:docname="gir.svg">
  <defs id="defs4">
    <inkscape:perspective sodipodi:type="inkscape:persp3d" inkscape:vp_x="0 : 526.18109 : 1" inkscape:vp_y="0 : 1000 : 0" inkscape:vp_z="744.09448 : 526.18109 : 1" inkscape:persp3d-origin="372.04724 : 350.78739 : 1" id="perspective10"/>
    <inkscape:perspective id="perspective3600" inkscape:persp3d-origin="0.5 : 0.33333333 : 1" inkscape:vp_z="1 : 0.5 : 1" inkscape:vp_y="0 : 1000 : 0" inkscape:vp_x="0 : 0.5 : 1" sodipodi:type="inkscape:persp3d"/>
    <inkscape:perspective id="perspective3622" inkscape:persp3d-origin="0.5 : 0.33333333 : 1" inkscape:vp_z="1 : 0.5 : 1" inkscape:vp_y="0 : 1000 : 0" inkscape:vp_x="0 : 0.5 : 1" sodipodi:type="inkscape:persp3d"/>
    <inkscape:perspective id="perspective3646" inkscape:persp3d-origin="0.5 : 0.33333333 : 1" inkscape:vp_z="1 : 0.5 : 1" inkscape:vp_y="0 : 1000 : 0" inkscape:vp_x="0 : 0.5 : 1" sodipodi:type="inkscape:persp3d"/>
    <inkscape:perspective id="perspective3682" inkscape:persp3d-origin="0.5 : 0.33333333 : 1" inkscape:vp_z="1 : 0.5 : 1" inkscape:vp_y="0 : 1000 : 0" inkscape:vp_x="0 : 0.5 : 1" sodipodi:type="inkscape:persp3d"/>
    <inkscape:perspective id="perspective3706" inkscape:persp3d-origin="0.5 : 0.33333333 : 1" inkscape:vp_z="1 : 0.5 : 1" inkscape:vp_y="0 : 1000 : 0" inkscape:vp_x="0 : 0.5 : 1" sodipodi:type="inkscape:persp3d"/>
    <inkscape:perspective id="perspective3728" inkscape:persp3d-origin="0.5 : 0.33333333 : 1" inkscape:vp_z="1 : 0.5 : 1" inkscape:vp_y="0 : 1000 : 0" inkscape:vp_x="0 : 0.5 : 1" sodipodi:type="inkscape:persp3d"/>
    <inkscape:perspective id="perspective3750" inkscape:persp3d-origin="0.5 : 0.33333333 : 1" inkscape:vp_z="1 : 0.5 : 1" inkscape:vp_y="0 : 1000 : 0" inkscape:vp_x="0 : 0.5 : 1" sodipodi:type="inkscape:persp3d"/>
    <inkscape:perspective id="perspective3774" inkscape:persp3d-origin="0.5 : 0.33333333 : 1" inkscape:vp_z="1 : 0.5 : 1" inkscape:vp_y="0 : 1000 : 0" inkscape:vp_x="0 : 0.5 : 1" sodipodi:type="inkscape:persp3d"/>
    <inkscape:perspective id="perspective3796" inkscape:persp3d-origin="0.5 : 0.33333333 : 1" inkscape:vp_z="1 : 0.5 : 1" inkscape:vp_y="0 : 1000 : 0" inkscape:vp_x="0 : 0.5 : 1" sodipodi:type="inkscape:persp3d"/>
    <inkscape:perspective id="perspective3818" inkscape:persp3d-origin="0.5 : 0.33333333 : 1" inkscape:vp_z="1 : 0.5 : 1" inkscape:vp_y="0 : 1000 : 0" inkscape:vp_x="0 : 0.5 : 1" sodipodi:type="inkscape:persp3d"/>
  </defs>
  <sodipodi:namedview id="base" pagecolor="#ffffff" bordercolor="#666666" borderopacity="1.0" inkscape:pageopacity="0.0" inkscape:pageshadow="2" inkscape:zoom="0.79351536" inkscape:cx="205" inkscape:cy="257" inkscape:document-units="px" inkscape:current-layer="layer1" showgrid="false" inkscape:window-width="1366" inkscape:window-height="714" inkscape:window-x="0" inkscape:window-y="0" inkscape:window-maximized="1"/>
  <metadata id="metadata7">
    <rdf:RDF>
      <cc:Work rdf:about="">
        <dc:format>image/svg+xml</dc:format>
        <dc:type rdf:resource="http://purl.org/dc/dcmitype/StillImage"/>
      </cc:Work>
    </rdf:RDF>
  </metadata>
  <g inkscape:label="Layer 1" inkscape:groupmode="layer" id="layer1" transform="translate(0,-542.36219)">
    <path style="fill:#000000;fill-opacity:1;stroke:#000000;stroke-width:3.09816742;stroke-linecap:round;stroke-linejoin:round;stroke-miterlimit:4;stroke-opacity:1;stroke-dasharray:none" d="m 152.74505,642.75329 c 7.59153,-25.99237 7.67636,-51.66707 34.33296,-67.14737 l 38.43798,0.74608 c -28.83223,8.99399 -51.05051,34.31578 -60.45586,66.02825 l -12.31508,0.37304 z" id="path3764" sodipodi:nodetypes="ccccc"/>
    <path style="fill:#000000;fill-opacity:1;stroke:#000000;stroke-width:3.31945705;stroke-linecap:round;stroke-linejoin:round;stroke-miterlimit:4;stroke-opacity:1;stroke-dasharray:none" d="m 299.2781,679.41701 c 5.02446,-27.68193 11.71276,-59.41443 -3.215,-90.1507 L 264.57689,578.3325 c 23.35562,21.92462 31.14008,56.05905 28.16685,94.05108 3.40169,2.72837 3.92879,4.03978 6.53436,7.03343 z" id="path3764-3" sodipodi:nodetypes="ccccc"/>
    <path style="fill:#000000;fill-opacity:1;stroke:#000000;stroke-width:3.09816742;stroke-linecap:butt;stroke-linejoin:round;stroke-miterlimit:4;stroke-opacity:1;stroke-dasharray:none" d="m 204.286,926.91108 c -3.79581,1.1445 -2.11602,1.93148 -8.02391,3.36398 0,0 -2.97993,0.77973 -4.34623,0.28866 -1.26263,-0.45383 -2.92689,-2.76239 -2.92689,-2.76239 -1.20534,-10.64732 8.89365,-25.23877 18.68536,-44.61349 6.88954,7.59453 -9.79204,40.46466 -3.38833,43.72324 z" id="path3696-7-5-9" sodipodi:nodetypes="ccaccc"/>
    <path style="fill:#000000;fill-opacity:1;stroke:#000000;stroke-width:3.09816742;stroke-linecap:butt;stroke-linejoin:round;stroke-miterlimit:4;stroke-opacity:1;stroke-dasharray:none" d="m 271.06581,945.30015 c 18.74752,-10.69952 30.03732,-15.10884 35.60178,-17.22916 -13.19415,6.32519 -28.06149,14.28183 -34.72314,23.45024 l -0.87864,-6.22108 z" id="path2844" sodipodi:nodetypes="cccc"/>
    <path style="fill:#000000;fill-opacity:1;stroke:#000000;stroke-width:3.09816742;stroke-linecap:butt;stroke-linejoin:round;stroke-miterlimit:4;stroke-opacity:1;stroke-dasharray:none" d="m 245.87791,966.47044 c -0.26923,31.85639 5.27942,42.88616 9.20227,52.55406 0,0 1.64036,2.0228 2.79955,2.0664 1.34083,0.051 3.40864,-2.1403 3.40864,-2.1403 4.37924,-16.2959 6.94222,-24.00547 5.32254,-53.74458 -15.27328,2.12321 -6.7802,1.42395 -20.733,1.26442 z" id="path3696-7" sodipodi:nodetypes="ccaccc"/>
    <path style="fill:#000000;fill-opacity:1;stroke:#000000;stroke-width:3.09816742;stroke-linecap:butt;stroke-linejoin:round;stroke-miterlimit:4;stroke-opacity:1;stroke-dasharray:none" d="m 204.11926,960.52097 c -2.79821,30.33957 5.78521,48.61643 9.70807,58.28433 0,0 1.81835,2.8411 3.30534,3.0775 1.54291,0.2453 4.25164,-1.9718 4.25164,-1.9718 2.86185,-17.9812 1.88425,-36.81405 2.11915,-53.74453 -9.7095,-0.57337 -12.00677,-1.27262 -19.3842,-5.6455 z" id="path3696" sodipodi:nodetypes="ccaccc"/>
    <path style="fill:#cf5145;fill-opacity:1;stroke:#000000;stroke-width:3.09816742;stroke-linecap:butt;stroke-linejoin:round;stroke-miterlimit:4;stroke-opacity:1;stroke-dasharray:none" d="m 161.51349,842.11817 -9.82602,37.29096 c 22.01431,-2.39525 22.07275,-0.76435 36.5021,1.37092 l -4.87939,-34.52827 -21.79669,-4.13361 z" id="path3664" sodipodi:nodetypes="ccccc"/>
    <path style="fill:#c0f18e;fill-opacity:1;stroke:none" d="M 242.03023,858.73624 C 148.78486,840.33285 154.6099,833.22892 75.675822,842.80648 50.122167,791.68284 65.408383,739.55864 94.00279,657.79292 c 73.43276,-31.58825 137.16668,-2.90809 184.15504,8.85022 16.20062,4.054 28.02632,15.98138 23.37353,30.2677 -12.18522,37.41449 -23.92472,60.04601 -27.38172,77.45243 -5.88468,29.63004 -12.75656,96.87983 -0.94981,188.23076 -29.18182,6.47322 -67.58164,4.40425 -69.62707,-3.90095 -8.30193,-21.59433 -6.22131,-53.26839 11.80935,-105.15558" id="path2816" sodipodi:nodetypes="cccsssccc"/>
    <path style="fill:#002711;fill-opacity:0.35497837;stroke:none" d="m 239.99179,966.54912 c 13.5409,-90.22892 -15.56309,-92.36216 -2.19197,-115.43057 33.4609,-57.7281 32.79236,-98.38786 18.17087,-190.81511 28.46072,6.33844 52.7767,16.32011 45.56067,36.6074 -12.18522,37.41449 -23.92474,60.04601 -27.38172,77.45243 -5.88468,29.63004 -12.75656,96.87983 -0.94983,188.23076 -14.41429,2.54093 -14.70037,2.91554 -33.20802,3.95509 z" id="path2816-3" sodipodi:nodetypes="csccscc"/>
    <path style="fill:none;stroke:#000000;stroke-width:3.09816742;stroke-linecap:round;stroke-linejoin:miter;stroke-miterlimit:4;stroke-opacity:1;stroke-dasharray:none" d="m 172.03401,844.15543 -0.92963,18.58543" id="path3666" sodipodi:nodetypes="cc"/>
    <path sodipodi:type="arc" style="fill:#ffffff;fill-opacity:1;stroke:#000000;stroke-width:5;stroke-miterlimit:4;stroke-opacity:1;stroke-dasharray:none" id="path3590-7" sodipodi:cx="138" sodipodi:cy="597.36218" sodipodi:rx="86" sodipodi:ry="83" d="m 224,597.36218 a 86,83 0 1 1 -172,0 86,83 0 1 1 172,0 z" transform="matrix(0.54286657,0,0,0.53241602,142.68357,445.77321)"/>
    <path sodipodi:type="arc" style="fill:#000000;fill-opacity:1;stroke:none" id="path3636-5" sodipodi:cx="117" sodipodi:cy="760.36218" sodipodi:rx="7" sodipodi:ry="8" d="m 124,760.36218 a 7,8 0 1 1 -14,0 7,8 0 1 1 14,0 z" transform="matrix(0.61975254,0,0,0.6195144,152.52514,284.08985)"/>
    <path style="fill:none;stroke:#000000;stroke-width:3.09816742;stroke-linecap:round;stroke-linejoin:miter;stroke-miterlimit:4;stroke-opacity:1;stroke-dasharray:18.5890043, 18.5890043;stroke-dashoffset:0" d="m 142.94553,838.84453 c -17.70177,-32.74941 2.83077,-136.9651 24.38058,-194.75394" id="path3660" sodipodi:nodetypes="cc"/>
    <path style="fill:#000000;fill-opacity:1;stroke:none" d="m 127.90344,813.80428 c -0.39165,-4.14381 -1.76409,-7.83764 -0.87649,-8.21526 4.48856,-4.25688 11.3525,-6.06734 26.73102,0.007 2.45888,0.97126 4.0938,8.05855 1.44991,8.05787 -16.4314,-0.004 -16.81098,-0.99531 -27.30444,0.15019 z" id="path3662" sodipodi:nodetypes="ccssc"/>
    <path style="fill:#bab9ba;fill-opacity:1;stroke:#000000;stroke-width:1.85890043;stroke-linecap:butt;stroke-linejoin:round;stroke-miterlimit:4;stroke-opacity:1;stroke-dasharray:none" d="m 215.52865,853.26586 c 0,0 -3.21799,13.01837 -1.21419,89.28245 0.0592,2.25132 18.34788,-1.44563 17.84889,-5.57564 -4.08419,-33.80283 -1.12867,-80.07179 -1.12867,-80.07179 l -15.50603,-3.63502 z" id="path3668" sodipodi:nodetypes="csscc"/>
    <path style="fill:none;stroke:#000000;stroke-width:1.85890043;stroke-linecap:round;stroke-linejoin:round;stroke-miterlimit:4;stroke-opacity:1;stroke-dasharray:none" d="m 227.02872,940.66977 -1.06291,-7.72393 -6.19752,-1.5488 -0.61976,-9.60246 5.57778,-2.16831 -0.61976,-9.91223 -5.26789,-1.54879 0,-8.67319 4.64816,-3.40734 0.30987,-10.22197 -5.57778,-1.23904 0.92962,-10.53175 5.26791,-1.23902 0.30987,-8.05369 -5.57778,-4.33662 1.54939,-6.19513" id="path3670" sodipodi:nodetypes="cccccccccccccccc"/>
    <path style="fill:#000000;fill-opacity:1;stroke:#000000;stroke-width:3.09816742;stroke-linecap:butt;stroke-linejoin:round;stroke-miterlimit:4;stroke-opacity:1;stroke-dasharray:none" d="m 247.12611,875.40758 c 1.11983,32.23771 18.22965,46.24816 23.74579,48.80233 0,0 2.77122,1.34441 4.20698,1.12846 1.32684,-0.19958 3.40864,-2.14032 3.40864,-2.14032 4.37924,-16.29585 -10.41617,-28.22613 -12.03585,-57.96523 -1.93983,8.16412 -7.65148,7.3375 -9.04207,6.04271 -2.0854,4.32378 -6.02773,4.12521 -10.28349,4.13205 z" id="path3696-7-5" sodipodi:nodetypes="ccacccc"/>
    <path style="fill:none;stroke:#000000;stroke-width:3.09816742;stroke-linecap:round;stroke-linejoin:round;stroke-miterlimit:4;stroke-opacity:1;stroke-dasharray:none" d="M 241.64637,859.0799 C 148.40102,840.67652 154.22605,833.5726 75.291972,843.15015 49.738318,792.0265 65.024532,739.90232 93.618938,658.13659 167.0517,626.54833 230.78558,655.2285 277.77398,666.98681 c 16.20064,4.05401 28.02632,15.98139 23.37354,30.2677 -12.1852,37.41448 -23.92474,60.04602 -27.38172,77.45244 -5.88469,29.63004 -12.75655,96.87984 -0.94983,188.23075 -29.18179,6.47324 -67.58161,4.40427 -69.62706,-3.90094 -8.30193,-21.59433 -6.2213,-53.26839 11.80936,-105.15559" id="path2816-2" sodipodi:nodetypes="cccsssccc"/>
    <path style="fill:#bababa;fill-opacity:1;stroke:#000000;stroke-width:1.85890043;stroke-linecap:butt;stroke-linejoin:round;stroke-miterlimit:4;stroke-opacity:1;stroke-dasharray:none" d="m 215.04218,853.82984 -15.10597,28.00606 c 6.68122,3.87141 13.79701,7.18995 24.7901,5.57562 l 4.53019,-30.63331 -14.21432,-2.94837 z" id="path3672" sodipodi:nodetypes="ccccc"/>
    <path style="fill:#000000;fill-opacity:1;stroke:none" d="m 222.47401,879.33642 c -1.0573,2.696 -1.18287,5.04431 -1.34448,5.08451 -3.66263,-0.88838 -9.66432,-0.55323 -15.09143,-4.05339 -0.13627,0.0194 1.3573,-3.49259 1.1143,-4.79275 8.07271,1.40376 10.31769,3.20981 15.32161,3.76163 z" id="path3662-6" sodipodi:nodetypes="ccccc"/>
    <path sodipodi:type="arc" style="fill:#ffffff;fill-opacity:1;stroke:#000000;stroke-width:5;stroke-miterlimit:4;stroke-opacity:1;stroke-dasharray:none" id="path3590" sodipodi:cx="138" sodipodi:cy="597.36218" sodipodi:rx="86" sodipodi:ry="83" d="m 224,597.36218 a 86,83 0 1 1 -172,0 86,83 0 1 1 172,0 z" transform="matrix(0.54286657,0,0,0.53241602,9.436773,447.63175)"/>
    <path sodipodi:type="arc" style="fill:#000000;fill-opacity:1;stroke:none" id="path3636" sodipodi:cx="117" sodipodi:cy="760.36218" sodipodi:rx="7" sodipodi:ry="8" d="m 124,760.36218 a 7,8 0 1 1 -14,0 7,8 0 1 1 14,0 z" transform="matrix(0.61975254,0,0,0.6195144,-9.2302758,284.08985)"/>
  </g>
</svg>